<svg xmlns="http://www.w3.org/2000/svg" version="1.0" width="3359.000000pt" height="1314.000000pt" viewBox="0 0 3359.000000 1314.000000" preserveAspectRatio="xMidYMid meet">

<g transform="translate(0.000000,1314.000000) scale(0.100000,-0.100000)" fill="#fe5b3d" stroke="none">
<path d="M10323 11073 c-29 -29 -53 -56 -53 -58 0 -3 -21 -32 -47 -66 -27 -33 -53 -69 -59 -80 -6 -11 -18 -27 -27 -37 -9 -9 -26 -28 -39 -42 -13 -13 -32 -39 -43 -57 -18 -29 -41 -57 -125 -152 -14 -16 -33 -40 -43 -52 -61 -82 -165 -215 -337 -430 -52 -65 -108 -137 -125 -159 -16 -23 -41 -54 -55 -70 -58 -65 -106 -124 -120 -146 -8 -13 -57 -74 -108 -136 -131 -159 -291 -358 -332 -414 -19 -26 -44 -57 -55 -69 -11 -12 -30 -35 -42 -51 -56 -74 -133 -171 -152 -190 -12 -12 -21 -26 -21 -32 0 -6 -8 -17 -17 -24 -21 -15 -53 -60 -76 -104 -9 -17 -43 -60 -77 -95 l-61 -64 -622 -9 c-799 -12 -840 -12 -912 -2 -53 7 -64 13 -95 49 -19 23 -46 52 -61 67 -14 14 -57 68 -96 120 -40 52 -97 127 -128 165 -119 148 -217 273 -265 335 -28 36 -59 74 -69 85 -40 44 -139 165 -186 229 -53 72 -147 189 -196 246 -33 37 -134 167 -159 204 -8 12 -24 31 -35 43 -27 29 -65 74 -95 114 -14 18 -48 62 -77 98 -66 83 -75 94 -123 159 -22 29 -79 101 -127 160 -48 59 -105 129 -125 157 -54 72 -70 92 -98 125 -14 16 -41 50 -60 77 -50 68 -84 101 -112 108 l-25 7 -4 -249 c-2 -136 -1 -797 3 -1468 4 -671 7 -1247 8 -1280 0 -85 -16 -162 -41 -193 -22 -29 -91 -133 -123 -186 -34 -56 -70 -111 -83 -126 -8 -8 -31 -42 -53 -75 -22 -33 -44 -67 -50 -75 -6 -8 -29 -45 -53 -82 -57 -90 -139 -209 -157 -229 -8 -9 -26 -36 -40 -59 -33 -57 -142 -222 -158 -240 -7 -8 -25 -35 -41 -60 -15 -25 -36 -58 -47 -75 -22 -35 -64 -133 -64 -151 0 -21 50 -74 89 -94 20 -10 56 -37 81 -60 52 -47 72 -63 157 -122 34 -24 97 -67 139 -97 72 -50 174 -146 174 -163 0 -4 6 -8 13 -8 8 0 22 -9 33 -21 10 -12 32 -28 49 -37 28 -14 114 -79 160 -121 11 -10 34 -25 50 -34 17 -8 50 -33 75 -55 81 -72 187 -154 251 -195 16 -11 29 -23 29 -27 0 -5 15 -16 32 -25 18 -8 70 -46 115 -83 45 -37 98 -78 118 -92 32 -22 60 -43 142 -108 12 -9 38 -28 58 -42 20 -14 55 -40 78 -57 23 -18 51 -39 62 -48 43 -32 102 -75 138 -102 22 -15 49 -38 62 -50 12 -13 26 -23 30 -23 4 0 22 -12 40 -27 18 -16 50 -39 70 -53 20 -14 49 -35 63 -48 15 -13 63 -50 107 -83 119 -88 125 -92 151 -117 14 -12 28 -22 32 -22 4 0 27 -16 52 -35 25 -19 56 -42 69 -52 13 -10 35 -28 48 -41 13 -12 27 -22 31 -22 10 0 99 -69 176 -135 16 -14 32 -25 36 -25 10 0 113 -78 160 -122 11 -9 34 -24 52 -34 18 -9 41 -24 50 -33 41 -37 76 -64 123 -94 28 -18 89 -62 135 -100 160 -127 220 -167 251 -167 16 0 29 4 29 9 0 5 16 20 37 33 20 12 50 32 67 43 18 11 41 28 51 38 39 36 160 127 169 127 5 0 18 9 30 21 33 32 160 129 170 129 5 0 18 9 30 21 28 27 146 118 171 132 11 5 43 29 72 51 28 23 71 55 94 71 45 32 164 126 189 148 8 8 26 20 40 27 14 7 32 19 40 26 19 18 85 69 147 114 26 19 54 40 63 47 80 64 144 113 179 138 24 17 71 53 107 80 35 28 82 64 104 80 22 17 70 53 105 80 35 28 80 61 100 75 20 14 50 36 65 50 35 30 58 48 130 100 30 23 66 48 78 58 13 9 47 40 75 68 29 28 62 56 73 62 12 6 58 40 102 74 45 35 115 88 157 118 42 30 87 65 101 78 14 12 29 22 33 22 8 0 59 38 116 86 41 34 46 38 95 70 76 51 86 58 136 99 27 23 62 49 77 59 30 19 49 34 101 81 18 17 46 37 62 45 34 17 91 56 176 123 33 26 64 47 69 47 5 0 22 12 38 28 16 15 48 40 70 56 45 33 52 61 26 106 -8 14 -20 37 -27 51 -7 14 -23 38 -36 55 -27 34 -125 182 -135 204 -4 8 -21 33 -37 55 -17 22 -38 51 -47 65 -15 23 -64 97 -97 145 -7 11 -29 45 -50 75 -20 30 -56 84 -81 120 -25 36 -54 79 -65 95 -20 28 -46 68 -140 210 -21 33 -48 74 -60 90 -48 70 -80 121 -80 129 0 6 -10 20 -22 34 l-23 24 -3 1591 c-1 875 -6 1594 -10 1597 -4 4 -31 -17 -59 -47z m-5175 -1214 c20 -22 51 -55 67 -72 28 -29 105 -127 130 -165 6 -8 19 -25 30 -37 65 -71 187 -223 220 -272 6 -8 42 -47 80 -87 39 -39 99 -111 135 -159 177 -240 207 -279 247 -321 16 -17 37 -42 48 -57 74 -98 111 -147 127 -164 17 -18 75 -89 224 -271 29 -34 54 -68 56 -74 8 -25 157 -28 1054 -22 l932 7 38 41 c52 54 176 199 241 281 29 36 71 87 93 112 22 25 58 71 81 101 41 55 106 134 144 174 11 11 35 43 54 71 32 47 110 144 154 190 10 11 36 45 59 75 22 30 43 57 47 60 3 3 21 25 40 50 19 25 43 54 53 65 11 11 37 45 59 75 48 65 114 145 146 180 13 14 37 43 54 65 47 62 82 106 101 126 9 9 21 27 28 38 12 23 42 28 58 9 7 -9 11 -347 14 -1023 l3 -1010 38 -50 c20 -27 46 -69 57 -92 10 -24 23 -43 28 -43 5 0 15 -13 22 -30 7 -16 17 -30 22 -30 5 0 18 -20 29 -44 10 -24 26 -46 34 -50 8 -3 15 -11 15 -17 0 -7 8 -21 17 -31 10 -11 26 -34 38 -53 37 -62 106 -163 173 -258 67 -95 113 -166 128 -197 9 -19 22 -38 29 -42 7 -4 18 -21 25 -38 7 -16 17 -30 22 -30 5 0 17 -17 26 -38 9 -21 23 -44 30 -52 29 -34 60 -90 67 -118 5 -25 2 -33 -20 -49 -14 -10 -80 -62 -146 -115 -66 -54 -130 -103 -142 -109 -12 -7 -53 -37 -92 -68 -38 -31 -90 -71 -115 -89 -64 -47 -181 -133 -215 -160 -17 -12 -40 -27 -52 -32 -13 -5 -23 -13 -23 -18 0 -4 -25 -25 -56 -47 -31 -22 -96 -71 -144 -110 -49 -38 -111 -83 -139 -100 -29 -16 -65 -41 -80 -55 -16 -14 -45 -36 -66 -50 -20 -14 -66 -48 -103 -77 -37 -29 -79 -61 -93 -72 -15 -12 -35 -24 -45 -28 -11 -3 -29 -16 -41 -27 -48 -46 -152 -126 -163 -126 -7 0 -37 -24 -85 -67 -10 -10 -34 -27 -51 -38 -58 -36 -88 -58 -139 -100 -27 -23 -75 -59 -105 -79 -30 -21 -59 -44 -63 -52 -4 -8 -12 -14 -17 -14 -6 0 -38 -23 -72 -51 -35 -28 -70 -53 -78 -56 -8 -3 -26 -16 -40 -28 -14 -12 -59 -48 -100 -79 -94 -70 -106 -79 -157 -119 -23 -17 -58 -43 -78 -57 -20 -14 -46 -33 -58 -42 -83 -66 -110 -86 -143 -108 -20 -14 -47 -35 -59 -47 -12 -13 -26 -23 -30 -23 -4 0 -22 -12 -40 -27 -18 -16 -50 -39 -70 -53 -19 -14 -52 -37 -72 -52 -20 -16 -48 -28 -63 -28 -15 0 -43 12 -63 28 -20 15 -58 43 -84 62 -26 19 -55 42 -64 50 -9 8 -52 40 -94 70 -43 30 -88 65 -100 78 -12 12 -27 22 -33 22 -6 0 -17 8 -24 18 -7 10 -27 27 -44 37 -90 58 -104 68 -104 75 0 4 -15 17 -32 28 -18 12 -60 42 -93 67 -33 25 -71 53 -83 63 -13 9 -34 27 -47 40 -12 12 -27 22 -32 22 -9 0 -34 18 -113 81 -14 11 -61 47 -105 79 -114 84 -125 93 -150 116 -13 12 -54 42 -92 67 -37 25 -82 58 -98 74 -33 30 -58 49 -120 89 -42 28 -52 36 -98 78 -15 14 -30 26 -34 26 -11 0 -116 78 -164 123 -15 13 -55 43 -90 66 -35 23 -82 58 -104 76 -22 19 -65 51 -95 71 -30 20 -76 54 -101 76 -26 21 -71 54 -100 74 -30 21 -77 56 -106 80 -28 24 -54 44 -58 44 -11 0 -110 73 -167 124 -13 11 -35 27 -48 33 -14 7 -45 29 -70 48 -25 19 -61 43 -80 54 -34 18 -145 99 -182 131 -9 8 -53 44 -97 79 -78 62 -81 67 -80 105 0 31 9 53 34 86 19 25 43 61 54 81 11 19 27 41 35 48 9 8 16 17 16 21 0 4 18 34 40 66 23 33 53 77 68 98 15 22 36 54 47 71 11 18 34 52 50 75 17 24 41 60 55 80 14 21 41 62 61 92 19 29 44 66 55 82 10 16 26 39 34 51 8 12 24 35 34 51 11 16 25 38 33 49 81 123 103 159 136 230 26 55 46 189 40 270 -17 234 -20 422 -7 474 10 44 13 194 14 680 0 567 2 626 17 643 23 25 28 23 71 -23z" fill="#fe5b3d"/>
<path d="M23190 9211 l-85 -6 0 -272 c0 -210 3 -275 13 -285 10 -10 74 -14 260 -16 233 -2 249 -1 280 18 l32 20 0 264 c0 201 -3 267 -12 273 -16 10 -370 13 -488 4z" fill="#fe5b3d"/>
<path d="M26385 9213 c-16 -2 -34 -9 -40 -14 -6 -6 -11 -316 -12 -872 -2 -806 -3 -862 -19 -874 -34 -25 -64 -16 -81 25 -15 36 -90 134 -122 159 -43 34 -59 46 -101 73 -25 16 -52 30 -60 30 -9 0 -34 9 -55 20 -45 23 -222 57 -365 70 -158 15 -472 -23 -534 -63 -11 -8 -39 -20 -61 -27 -22 -7 -48 -21 -58 -31 -10 -11 -22 -19 -27 -19 -14 0 -170 -160 -170 -174 0 -7 -9 -25 -20 -39 -12 -14 -26 -41 -32 -59 -6 -18 -19 -44 -29 -58 -9 -14 -20 -45 -23 -69 -4 -24 -14 -57 -22 -73 -9 -17 -20 -60 -25 -97 -5 -36 -18 -104 -28 -151 -28 -121 -46 -551 -37 -890 9 -364 16 -496 27 -560 6 -30 18 -107 28 -171 10 -63 26 -129 35 -146 8 -17 19 -50 22 -74 7 -41 44 -123 79 -171 9 -13 31 -47 50 -76 35 -56 144 -154 186 -167 13 -4 35 -15 49 -25 14 -10 50 -23 80 -29 30 -7 66 -19 80 -29 22 -15 59 -17 345 -17 312 0 321 1 360 23 21 12 52 22 69 22 51 0 221 94 253 140 8 11 20 20 26 20 14 0 52 58 124 188 27 48 39 58 57 43 16 -13 24 -52 37 -161 14 -125 30 -214 40 -225 6 -6 98 -10 234 -10 202 0 226 2 242 18 17 17 18 121 18 2267 0 1831 -2 2251 -13 2262 -10 10 -70 13 -245 14 -128 1 -245 0 -262 -3z m-507 -1912 c51 -5 89 -14 100 -24 9 -8 31 -19 48 -24 62 -16 168 -112 179 -161 3 -17 13 -36 21 -42 7 -7 19 -31 24 -54 6 -22 19 -61 29 -86 13 -31 21 -85 26 -175 4 -71 12 -139 18 -150 14 -27 14 -729 -1 -775 -5 -19 -13 -84 -17 -145 -4 -73 -12 -123 -24 -151 -11 -23 -22 -57 -26 -75 -27 -125 -174 -274 -290 -294 -22 -3 -60 -14 -85 -22 -62 -23 -386 -21 -453 2 -25 8 -69 20 -98 25 -29 6 -70 22 -91 37 -50 34 -108 115 -123 173 -7 25 -19 61 -28 80 -8 19 -18 82 -22 140 -4 58 -11 150 -17 205 -6 55 -12 237 -14 405 -4 243 -2 319 10 375 8 39 17 138 21 220 5 115 11 159 25 190 10 22 21 56 25 75 8 40 60 123 102 161 49 46 132 81 208 89 98 10 354 10 453 1z" fill="#fe5b3d"/>
<path d="M12127 8875 c-26 -8 -33 -17 -39 -50 -9 -52 -8 -4102 1 -4135 7 -25 8 -25 146 -30 157 -6 370 1 382 14 4 4 10 725 13 1601 5 1457 6 1596 21 1611 15 15 19 12 53 -39 22 -33 40 -76 46 -109 6 -30 19 -72 30 -93 11 -22 20 -51 20 -65 0 -14 11 -45 24 -70 13 -25 26 -62 30 -83 4 -21 15 -52 25 -70 10 -18 21 -51 25 -74 3 -23 15 -57 25 -75 10 -18 22 -51 26 -73 4 -21 15 -55 25 -75 10 -19 21 -58 25 -85 4 -28 14 -63 22 -78 18 -36 59 -154 79 -227 9 -30 22 -69 29 -85 8 -17 19 -53 25 -80 6 -28 17 -59 25 -71 7 -11 18 -46 24 -77 6 -31 17 -69 24 -84 8 -16 18 -44 22 -63 4 -19 18 -61 31 -92 13 -32 24 -67 24 -78 0 -12 9 -40 19 -64 11 -23 25 -64 32 -92 7 -27 18 -58 25 -69 7 -11 18 -47 24 -80 7 -33 20 -76 30 -95 9 -19 20 -54 24 -78 3 -24 13 -53 20 -65 8 -12 19 -47 25 -77 7 -30 18 -65 26 -77 9 -12 20 -46 26 -75 7 -29 18 -62 25 -73 7 -11 18 -45 25 -75 6 -30 19 -71 29 -90 10 -19 21 -55 25 -80 4 -25 14 -55 22 -68 8 -13 20 -53 28 -88 8 -37 24 -79 39 -99 25 -32 28 -33 123 -40 156 -12 363 5 363 29 0 6 13 38 29 71 16 33 32 76 36 95 4 19 15 51 25 70 10 19 21 54 25 77 3 23 15 53 25 66 10 12 21 45 25 72 4 28 15 64 25 80 10 17 21 48 25 70 4 22 15 54 25 71 10 17 21 51 25 75 4 24 15 60 25 81 10 20 22 54 25 75 4 21 16 53 26 71 10 18 23 60 28 93 6 34 17 71 24 83 8 12 20 46 26 76 7 30 19 65 27 78 8 12 19 48 25 79 6 31 19 72 30 92 10 20 19 47 19 61 0 14 11 48 25 75 13 28 25 61 25 75 0 14 11 48 23 75 13 28 27 69 31 93 3 23 15 59 26 80 11 20 20 48 20 62 0 14 11 48 23 75 13 28 27 70 31 93 3 24 15 61 26 82 11 21 22 58 26 82 3 23 14 57 24 75 10 17 22 52 25 77 4 26 15 56 25 69 9 12 23 46 29 76 6 29 18 65 25 80 8 14 20 49 26 76 6 28 18 57 26 66 8 9 19 42 25 75 6 32 17 69 25 81 8 12 19 44 25 71 7 35 21 59 48 86 35 34 39 36 47 19 5 -10 9 -728 9 -1595 0 -1501 1 -1578 18 -1595 16 -16 41 -18 268 -18 247 0 251 0 269 22 10 12 20 46 23 75 4 29 8 958 9 2065 l3 2012 -21 28 -21 28 -379 3 c-208 1 -394 0 -412 -3 -27 -5 -36 -13 -48 -43 -8 -20 -21 -50 -29 -67 -8 -16 -17 -48 -21 -70 -4 -22 -15 -56 -25 -77 -10 -20 -21 -56 -25 -80 -4 -23 -15 -59 -24 -78 -10 -19 -23 -60 -29 -90 -7 -30 -18 -64 -26 -76 -7 -12 -17 -39 -20 -60 -4 -21 -16 -55 -26 -74 -10 -19 -23 -60 -29 -90 -6 -30 -17 -64 -25 -76 -7 -11 -16 -43 -20 -70 -4 -27 -15 -63 -25 -81 -11 -18 -24 -58 -29 -89 -6 -32 -17 -67 -25 -78 -7 -12 -18 -45 -25 -74 -6 -29 -18 -63 -26 -76 -8 -12 -20 -49 -26 -81 -6 -33 -19 -76 -30 -97 -10 -20 -19 -48 -19 -60 0 -13 -10 -43 -21 -68 -12 -25 -27 -71 -35 -103 -8 -33 -21 -68 -29 -80 -8 -12 -15 -31 -15 -42 0 -11 -11 -42 -23 -70 -13 -27 -29 -79 -36 -114 -7 -35 -19 -74 -26 -85 -7 -12 -17 -39 -20 -61 -4 -22 -15 -54 -25 -71 -9 -16 -20 -48 -24 -70 -4 -21 -15 -57 -25 -79 -21 -45 -53 -139 -81 -235 -10 -36 -25 -83 -34 -105 -8 -22 -15 -49 -16 -60 0 -11 -8 -36 -19 -55 -10 -20 -24 -60 -30 -90 -6 -30 -20 -69 -31 -85 -11 -17 -20 -42 -20 -56 0 -14 -6 -34 -14 -44 -12 -16 -17 -17 -43 -6 -34 14 -58 51 -67 106 -4 22 -14 50 -22 62 -8 12 -19 46 -25 75 -7 29 -18 62 -25 73 -7 11 -18 45 -25 75 -6 30 -18 67 -25 82 -8 15 -19 51 -25 80 -6 29 -15 58 -21 64 -11 15 -54 138 -78 226 -11 37 -25 77 -34 90 -8 13 -18 46 -21 73 -4 28 -13 57 -21 65 -7 9 -20 43 -28 75 -7 33 -23 80 -35 105 -11 25 -21 55 -21 67 0 11 -11 45 -25 75 -14 29 -25 67 -25 83 0 17 -9 48 -21 69 -11 21 -24 61 -30 90 -5 29 -18 70 -29 91 -11 22 -20 51 -20 65 0 14 -9 42 -20 62 -11 21 -25 59 -30 85 -6 27 -19 66 -30 88 -10 22 -21 62 -25 89 -4 27 -13 59 -20 70 -8 12 -19 46 -26 76 -6 30 -18 64 -25 76 -8 11 -19 47 -25 80 -6 32 -17 69 -25 81 -7 12 -18 43 -24 70 -6 26 -19 66 -30 88 -10 22 -21 60 -25 85 -4 25 -13 54 -20 66 -7 11 -19 41 -25 65 -6 24 -20 67 -30 94 -11 28 -24 69 -30 93 -6 23 -23 56 -38 72 l-27 29 -378 3 c-239 2 -391 0 -410 -7z" fill="#fe5b3d"/>
<path d="M19537 8883 c-10 -3 -22 -16 -28 -29 -12 -34 -12 -4164 1 -4184 8 -12 47 -16 227 -18 120 -2 246 -1 281 3 55 6 64 10 73 32 5 14 12 356 16 799 l6 775 28 15 c23 12 107 14 489 14 536 0 510 4 535 -88 8 -31 24 -73 34 -93 11 -19 23 -53 27 -75 3 -21 15 -55 25 -76 10 -20 23 -58 29 -84 6 -27 17 -55 25 -64 7 -8 18 -41 25 -72 6 -32 15 -60 21 -63 5 -3 16 -32 25 -63 9 -31 21 -62 26 -69 5 -7 18 -43 28 -80 23 -84 56 -180 74 -213 8 -14 19 -49 25 -79 6 -30 20 -68 30 -85 10 -17 22 -48 25 -69 4 -21 15 -52 26 -70 10 -18 22 -50 26 -72 4 -22 15 -56 25 -75 11 -19 24 -54 29 -77 7 -27 19 -47 33 -55 28 -15 341 -22 487 -11 l105 8 3 54 c2 42 -1 61 -17 82 -11 15 -23 47 -27 71 -4 24 -14 57 -24 73 -9 17 -23 52 -29 78 -6 27 -18 59 -25 70 -7 12 -19 44 -25 70 -7 27 -18 59 -25 70 -8 12 -19 45 -26 74 -6 29 -18 57 -25 63 -8 6 -19 37 -25 68 -7 31 -18 64 -26 73 -8 8 -18 36 -23 62 -4 26 -15 57 -24 71 -9 13 -22 46 -28 73 -7 26 -20 64 -31 83 -10 19 -18 44 -18 56 0 11 -11 41 -23 65 -13 24 -27 61 -31 82 -4 21 -15 52 -25 70 -11 18 -22 49 -25 70 -4 21 -15 52 -26 70 -10 18 -22 50 -26 72 -3 22 -10 47 -15 56 -11 21 53 83 104 99 20 6 37 15 37 19 0 4 15 15 33 25 38 23 57 38 105 91 20 21 47 49 59 62 11 12 26 38 33 57 6 19 18 40 25 46 8 7 22 35 30 62 8 28 19 56 25 63 6 7 17 55 25 106 8 52 20 110 28 129 20 47 41 446 33 615 -4 72 -9 180 -11 240 -6 126 -13 185 -26 201 -5 7 -16 45 -24 85 -8 41 -23 92 -35 114 -11 21 -20 49 -20 61 0 12 -7 27 -16 35 -8 7 -24 29 -34 48 -11 20 -40 58 -65 86 -25 27 -45 53 -45 57 0 5 -6 8 -13 8 -8 0 -24 11 -36 24 -13 14 -36 30 -52 36 -16 7 -29 16 -29 20 0 5 -17 14 -37 21 -21 7 -49 20 -63 30 -14 9 -49 22 -78 28 -29 6 -63 17 -75 25 -39 26 -554 45 -1347 49 -399 3 -733 3 -743 0z m1723 -535 c19 -10 60 -22 90 -28 30 -6 67 -19 82 -30 15 -11 30 -20 34 -20 17 0 113 -94 118 -116 4 -14 16 -38 26 -53 11 -14 24 -53 30 -86 5 -33 17 -85 25 -115 21 -77 21 -507 -1 -600 -8 -36 -20 -97 -28 -137 -7 -40 -19 -80 -28 -90 -9 -10 -19 -29 -23 -42 -15 -48 -130 -135 -230 -174 -109 -42 -266 -51 -763 -45 -402 6 -426 7 -451 25 l-26 20 -5 554 c-3 305 -3 633 0 730 6 212 8 216 104 222 33 2 275 3 536 3 430 -1 478 -3 510 -18z" fill="#fe5b3d"/>
<path d="M17800 7830 c-47 -4 -103 -13 -125 -18 -22 -6 -74 -14 -115 -18 -41 -3 -100 -17 -130 -29 -30 -12 -66 -26 -80 -30 -14 -4 -32 -14 -41 -21 -8 -8 -32 -19 -52 -26 -44 -16 -157 -113 -212 -183 -22 -27 -54 -79 -73 -115 -18 -36 -37 -72 -42 -80 -25 -45 -60 -189 -69 -286 -6 -61 -21 -153 -32 -205 -19 -90 -20 -118 -16 -659 3 -476 6 -574 20 -625 8 -33 20 -113 26 -178 7 -66 18 -131 26 -146 8 -16 19 -50 26 -77 7 -26 23 -64 36 -82 13 -19 23 -43 23 -53 0 -10 6 -22 13 -26 7 -4 20 -19 29 -33 14 -22 86 -97 143 -149 11 -10 49 -33 85 -51 36 -17 81 -40 101 -50 20 -11 60 -22 90 -26 30 -4 78 -15 107 -26 48 -18 84 -20 465 -21 308 -2 425 1 462 11 28 7 95 20 150 28 55 9 102 18 105 20 6 7 19 290 16 352 -5 85 -6 86 -202 73 -93 -6 -198 -13 -234 -15 -36 -2 -95 -9 -133 -17 -56 -11 -79 -11 -140 0 -39 8 -122 19 -184 26 -63 6 -121 18 -135 27 -12 8 -39 20 -59 27 -77 25 -178 158 -200 263 -6 28 -18 67 -26 87 -44 105 -43 1344 1 1429 8 15 19 53 24 83 10 54 26 84 89 173 35 49 116 102 179 117 27 6 69 18 94 28 68 24 600 24 680 -1 76 -24 207 -28 220 -8 11 16 14 361 4 398 -4 12 -11 22 -16 22 -5 0 -28 9 -51 20 -31 15 -84 25 -202 36 -87 8 -175 18 -195 23 -51 14 -350 21 -450 11z" fill="#fe5b3d"/>
<path d="M28750 7831 c-63 -3 -120 -9 -126 -13 -6 -4 -67 -14 -135 -22 -76 -9 -141 -23 -169 -35 -25 -11 -54 -21 -66 -21 -11 0 -35 -11 -54 -25 -19 -14 -41 -25 -51 -25 -9 0 -33 -13 -54 -30 -21 -16 -41 -30 -45 -30 -6 0 -101 -94 -140 -138 -24 -28 -76 -123 -90 -167 -7 -22 -19 -49 -26 -60 -7 -11 -18 -50 -23 -86 -6 -37 -17 -85 -25 -107 -9 -24 -20 -121 -26 -229 -7 -103 -18 -211 -26 -240 -16 -58 -18 -399 -4 -633 20 -325 41 -559 54 -605 8 -27 20 -79 27 -115 6 -36 18 -76 26 -88 8 -13 21 -46 29 -72 8 -27 19 -52 24 -55 6 -4 17 -22 25 -41 19 -45 184 -210 229 -229 19 -8 37 -19 41 -25 3 -5 28 -16 55 -24 26 -8 59 -21 72 -29 12 -9 56 -20 95 -26 40 -6 94 -19 120 -29 44 -15 100 -17 608 -17 501 0 566 2 615 17 30 10 96 22 145 28 133 16 129 9 133 239 3 157 1 190 -12 200 -19 16 -472 -4 -561 -25 -70 -16 -459 -19 -540 -3 -27 5 -98 16 -157 24 -64 8 -122 22 -145 35 -21 11 -42 20 -46 20 -19 0 -106 63 -127 92 -41 56 -79 137 -85 185 -4 27 -14 75 -23 108 -11 44 -15 114 -16 265 l-1 204 24 12 c18 10 226 13 855 13 457 1 852 4 878 7 l46 6 7 93 c12 156 -1 699 -19 790 -8 44 -19 132 -25 196 -7 82 -16 126 -29 150 -11 19 -23 50 -26 70 -4 21 -13 42 -21 49 -8 7 -20 31 -27 54 -9 30 -37 65 -103 132 -72 73 -105 98 -165 126 -41 20 -91 39 -110 43 -19 4 -45 14 -58 22 -13 8 -76 20 -140 28 -64 8 -137 18 -162 24 -62 12 -311 19 -450 12z m458 -501 c23 -11 58 -22 77 -26 47 -8 148 -107 165 -160 7 -21 19 -46 27 -56 8 -9 20 -62 27 -125 7 -59 18 -119 24 -133 5 -14 13 -103 17 -198 7 -158 6 -174 -10 -192 -18 -19 -34 -20 -625 -20 -494 0 -610 3 -625 14 -17 12 -18 25 -12 194 4 99 11 192 17 207 6 15 13 62 16 104 4 48 14 94 29 126 13 28 29 65 35 83 7 18 36 56 65 85 45 44 67 58 137 81 109 37 195 46 413 40 148 -4 187 -8 223 -24z" fill="#fe5b3d"/>
<path d="M23113 7778 c-9 -15 -7 -3108 3 -3117 3 -3 122 -6 264 -6 236 0 261 2 277 18 17 17 18 71 26 860 4 463 5 993 2 1177 -2 184 -5 494 -5 688 0 339 -1 353 -20 372 -19 19 -33 20 -279 20 -197 0 -262 -3 -268 -12z" fill="#fe5b3d"/>
</g>
</svg>